<svg xmlns="http://www.w3.org/2000/svg" viewBox="0 0 24 24" fill="currentColor"><path d="M7.05027 7.05086C8.52595 5.57524 10.4965 4.89559 12.4277 5.01296C12.6938 5.02913 12.8248 5.34052 12.7193 5.58539C12.334 6.47996 12.5069 7.55746 13.2376 8.28813C13.6317 8.68221 14.1266 8.91331 14.6393 8.98249C14.8338 9.00873 14.9916 9.16658 15.0179 9.36101C15.087 9.8737 15.3182 10.3686 15.7122 10.7627C16.443 11.4934 17.5201 11.6657 18.4146 11.2803C18.6593 11.1748 18.9707 11.3056 18.987 11.5718C19.1047 13.5032 18.4255 15.4739 16.9496 16.9498C14.2159 19.6834 9.78398 19.6834 7.05027 16.9498C4.31659 14.2162 4.31656 9.78445 7.05027 7.05086ZM10.5148 13.4854C10.1047 13.0754 9.44003 13.0754 9.02999 13.4854C8.62016 13.8954 8.62005 14.5601 9.02999 14.9701C9.43998 15.3801 10.1047 15.38 10.5148 14.9701C10.9248 14.5601 10.9248 13.8954 10.5148 13.4854ZM14.7224 13.2379C14.3123 12.828 13.6477 12.828 13.2376 13.2379C12.8275 13.648 12.8275 14.3126 13.2376 14.7227C13.6477 15.1327 14.3123 15.1327 14.7224 14.7227C15.1323 14.3126 15.1323 13.6479 14.7224 13.2379ZM10.7622 9.27796C10.3522 8.86807 9.68747 8.86801 9.27746 9.27796C8.86744 9.68796 8.86753 10.3526 9.27746 10.7627C9.68752 11.1728 10.3522 11.1728 10.7622 10.7627C11.1723 10.3526 11.1723 9.68799 10.7622 9.27796Z"></path></svg>